<svg width="193" height="177" viewBox="0 0 193 177" fill="none" xmlns="http://www.w3.org/2000/svg">
<g clip-path="url(#clip0_10_12)">
<path d="M187.82 0H5C2.23858 0 0 2.23858 0 5V171.72C0 174.481 2.23858 176.72 5 176.72H187.82C190.581 176.72 192.82 174.481 192.82 171.72V5C192.82 2.23858 190.581 0 187.82 0Z" fill="#135D52"/>
<path d="M106.57 47.81C106.89 48.33 107.36 48.87 107.98 49.45C108.74 50.15 108.7 51.36 107.93 52.04L103.66 55.77C103.08 56.27 102.25 56.34 101.59 55.95C99.26 54.56 97.63 52.89 96.69 50.92C95.55 52.52 94 53.87 92.04 54.95C90.08 56.04 87.65 56.58 84.75 56.58C81.08 56.58 78.16 55.64 75.99 53.75C73.82 51.86 72.73 49.19 72.73 45.73C72.73 42.63 73.54 40.24 75.17 38.56C76.8 36.88 78.67 35.73 80.79 35.11C82.91 34.49 85.26 34.05 87.84 33.79L91.56 33.4C93.06 33.24 94.1 32.99 94.7 32.62C95.29 32.26 95.62 31.66 95.67 30.84C95.57 29.29 95.06 27.97 94.16 26.89C93.26 25.8 91.54 25.26 89.01 25.26C87.36 25.26 85.91 25.57 84.67 26.19C83.75 26.65 82.82 27.32 81.87 28.21C81.26 28.78 80.35 28.85 79.67 28.37L75.58 25.52C74.68 24.89 74.57 23.6 75.35 22.83C76.58 21.61 78.01 20.62 79.63 19.86C81.9 18.8 85.03 18.27 89.01 18.27C100.17 18.27 105.75 22.79 105.75 31.83V44.39C105.75 45.78 106.02 46.92 106.56 47.8L106.57 47.81ZM93.52 47.39C94.97 46.07 95.69 44.46 95.69 42.55V39.29C94.86 39.6 93.29 39.88 90.96 40.14L88.63 40.37C86.87 40.52 85.4 40.93 84.21 41.57C83.02 42.22 82.43 43.42 82.43 45.17C82.43 46.51 82.87 47.55 83.75 48.27C84.63 48.99 85.82 49.36 87.32 49.36C90.01 49.36 92.07 48.7 93.52 47.38V47.39Z" fill="white"/>
<path d="M139.26 21.69L137.77 26.73C137.46 27.76 136.31 28.25 135.34 27.78C134.9 27.57 134.47 27.4 134.05 27.27C133.07 26.96 131.85 26.8 130.41 26.8C127 26.8 124.54 29.07 123.05 33.62V53.88C123.05 54.85 122.27 55.63 121.3 55.63H114.73C113.76 55.63 112.98 54.85 112.98 53.88V30.44C112.98 29.04 112.71 27.91 112.17 27.03C111.85 26.51 111.38 25.97 110.76 25.39C110 24.69 110.04 23.48 110.81 22.8L115.07 19.08C115.64 18.59 116.46 18.5 117.1 18.88C118.35 19.62 119.38 20.4 120.19 21.21C121.22 22.24 121.97 23.48 122.44 24.93C123.47 22.91 124.84 21.3 126.55 20.09C128.26 18.88 130.35 18.27 132.83 18.27C134.98 18.27 136.87 18.74 138.5 19.67C139.2 20.07 139.51 20.91 139.29 21.68L139.26 21.69Z" fill="white"/>
<path d="M64.54 100.14C61.65 97.66 60.2 94.12 60.2 89.52V79.91C60.2 75.31 61.65 71.77 64.54 69.29C67.43 66.81 71.57 65.57 76.94 65.57C82.31 65.57 86.45 66.81 89.34 69.29C92.23 71.77 93.68 75.31 93.68 79.91V89.52C93.68 94.12 92.23 97.66 89.34 100.14C86.45 102.62 82.31 103.86 76.94 103.86C71.57 103.86 67.43 102.62 64.54 100.14ZM81.86 94.4C83.02 93.26 83.6 91.64 83.6 89.52V79.91C83.6 77.79 83.02 76.16 81.86 75.03C80.7 73.89 79.06 73.32 76.94 73.32C74.82 73.32 73.18 73.89 72.02 75.03C70.86 76.17 70.28 77.79 70.28 79.91V89.52C70.28 91.64 70.86 93.27 72.02 94.4C73.18 95.54 74.82 96.11 76.94 96.11C79.06 96.11 80.7 95.54 81.86 94.4Z" fill="white"/>
<path d="M52.22 62.99C51.54 62.31 50.43 62.31 49.75 62.99C47.07 65.65 45.12 67.6 44.84 67.88C43.83 68.86 43 70.52 42.54 71.86C39.8 67.67 35.8 65.58 30.53 65.58C27.12 65.58 24.21 66.39 21.81 68.02C19.41 69.65 17.61 71.82 16.42 74.53C15.23 77.24 14.64 80.23 14.64 83.48V85.03C14.64 90.51 16.07 94.86 18.94 98.09C21.81 101.32 25.67 102.93 30.53 102.93C33.47 102.93 35.79 102.53 37.47 101.73C39.15 100.93 40.58 99.75 41.77 98.2V104.01C41.77 106.39 41.18 108.09 39.99 109.13C38.8 110.16 36.89 110.68 34.25 110.68H25.36C24.39 110.68 23.61 111.46 23.61 112.43V116.68C23.61 117.65 24.39 118.43 25.36 118.43H34.25C40.45 118.43 44.93 117.29 47.7 115.02C50.46 112.75 51.85 109.08 51.85 104.01V77.74C51.85 76.34 52.01 75.13 52.66 74.33C52.71 74.27 54.4 72.56 56.86 70.08C57.54 69.4 57.54 68.29 56.86 67.61L52.24 62.99H52.22ZM41.75 88.82C40.56 93.06 37.8 95.18 33.46 95.18C30.62 95.18 28.45 94.2 26.95 92.23C25.45 90.27 24.7 87.86 24.7 85.02V83.47C24.7 80.68 25.46 78.29 26.99 76.3C28.51 74.31 30.67 73.32 33.46 73.32C37.8 73.32 40.56 75.44 41.75 79.68V88.83V88.82Z" fill="white"/>
<path d="M65.96 21.54C63.97 19.37 61.09 18.28 57.32 18.28C52.41 18.28 48.79 20.35 46.47 24.48C45.64 22.46 44.34 20.93 42.56 19.87C40.78 18.81 38.59 18.28 36.01 18.28C31.36 18.28 27.82 20.24 25.39 24.17C24.53 22.04 22.85 20.27 20.36 18.85C19.72 18.49 18.91 18.58 18.36 19.07L14.08 22.8C13.3 23.48 13.27 24.69 14.03 25.4C14.64 25.97 15.11 26.51 15.43 27.03C15.97 27.91 16.24 29.05 16.24 30.44V53.88C16.24 54.85 17.02 55.63 17.99 55.63H24.55C25.52 55.63 26.31 54.84 26.31 53.87V31.84C27.76 27.96 30 26.03 33.05 26.03C34.44 26.03 35.54 26.55 36.34 27.58C37.14 28.61 37.54 30.01 37.54 31.77V53.88C37.54 54.85 38.33 55.64 39.3 55.64H45.86C46.83 55.64 47.62 54.85 47.62 53.88V31.85C49.07 27.97 51.31 26.04 54.36 26.04C55.75 26.04 56.85 26.56 57.65 27.59C58.45 28.62 58.85 30.02 58.85 31.78V49.86C58.85 52.49 57.8 55.01 55.93 56.86C55.74 57.05 55.54 57.24 55.35 57.43C54.66 58.11 54.66 59.22 55.35 59.91L59.93 64.49C60.61 65.17 61.72 65.17 62.41 64.49C63.61 63.29 64.83 62.06 66.04 60.85L66.07 60.82C67.91 58.97 68.95 56.47 68.95 53.87V30.86C68.95 26.83 67.95 23.73 65.97 21.56L65.96 21.54Z" fill="white"/>
</g>
<defs>
<clipPath id="clip0_10_12">
<rect width="192.82" height="176.72" fill="white"/>
</clipPath>
</defs>
</svg>
